<mxfile host="app.diagrams.net" modified="2024-07-08T07:07:26.476Z" agent="Mozilla/5.0 (Windows NT 10.0; Win64; x64) AppleWebKit/537.36 (KHTML, like Gecko) Chrome/126.0.0.0 Safari/537.36" etag="hNv1phziamKTg-pgkmH9" version="24.6.4" type="device" pages="2">
  <diagram id="KfR-qvKGwJpqS7gBh0e4" name="Car-Rental-Service">
    <mxGraphModel dx="1762" dy="813" grid="1" gridSize="10" guides="1" tooltips="1" connect="1" arrows="1" fold="1" page="1" pageScale="1" pageWidth="850" pageHeight="1100" math="0" shadow="0">
      <root>
        <mxCell id="0" />
        <mxCell id="1" parent="0" />
        <mxCell id="lkF-fw1_CxuEREfasKSE-16" value="" style="edgeStyle=orthogonalEdgeStyle;rounded=0;orthogonalLoop=1;jettySize=auto;html=1;" parent="1" edge="1">
          <mxGeometry relative="1" as="geometry">
            <mxPoint x="720" y="480" as="sourcePoint" />
          </mxGeometry>
        </mxCell>
        <mxCell id="lkF-fw1_CxuEREfasKSE-18" value="" style="edgeStyle=orthogonalEdgeStyle;rounded=0;orthogonalLoop=1;jettySize=auto;html=1;" parent="1" source="lkF-fw1_CxuEREfasKSE-6" target="lkF-fw1_CxuEREfasKSE-17" edge="1">
          <mxGeometry relative="1" as="geometry" />
        </mxCell>
        <mxCell id="lkF-fw1_CxuEREfasKSE-6" value="rental_service" style="rounded=1;whiteSpace=wrap;html=1;" parent="1" vertex="1">
          <mxGeometry x="600" y="330" width="120" height="60" as="geometry" />
        </mxCell>
        <mxCell id="lkF-fw1_CxuEREfasKSE-19" style="edgeStyle=orthogonalEdgeStyle;rounded=0;orthogonalLoop=1;jettySize=auto;html=1;exitX=0;exitY=0;exitDx=0;exitDy=0;" parent="1" source="lkF-fw1_CxuEREfasKSE-7" edge="1">
          <mxGeometry relative="1" as="geometry">
            <mxPoint x="410" y="530" as="targetPoint" />
            <Array as="points">
              <mxPoint x="1100" y="850" />
              <mxPoint x="411" y="850" />
            </Array>
          </mxGeometry>
        </mxCell>
        <mxCell id="lkF-fw1_CxuEREfasKSE-7" value="billing_service&lt;span style=&quot;color: rgba(0, 0, 0, 0); font-family: monospace; font-size: 0px; text-align: start; text-wrap: nowrap;&quot;&gt;%3CmxGraphModel%3E%3Croot%3E%3CmxCell%20id%3D%220%22%2F%3E%3CmxCell%20id%3D%221%22%20parent%3D%220%22%2F%3E%3CmxCell%20id%3D%222%22%20value%3D%22rental_service%22%20style%3D%22rounded%3D1%3BwhiteSpace%3Dwrap%3Bhtml%3D1%3B%22%20vertex%3D%221%22%20parent%3D%221%22%3E%3CmxGeometry%20x%3D%22440%22%20y%3D%22400%22%20width%3D%22120%22%20height%3D%2260%22%20as%3D%22geometry%22%2F%3E%3C%2FmxCell%3E%3C%2Froot%3E%3C%2FmxGraphModel%3E&lt;/span&gt;" style="rounded=1;whiteSpace=wrap;html=1;" parent="1" vertex="1">
          <mxGeometry x="1100" y="700" width="120" height="60" as="geometry" />
        </mxCell>
        <mxCell id="lkF-fw1_CxuEREfasKSE-20" style="edgeStyle=orthogonalEdgeStyle;rounded=0;orthogonalLoop=1;jettySize=auto;html=1;exitX=0;exitY=0;exitDx=0;exitDy=0;" parent="1" source="lkF-fw1_CxuEREfasKSE-8" target="lkF-fw1_CxuEREfasKSE-10" edge="1">
          <mxGeometry relative="1" as="geometry">
            <Array as="points">
              <mxPoint x="1060" y="960" />
              <mxPoint x="360" y="960" />
            </Array>
          </mxGeometry>
        </mxCell>
        <mxCell id="lkF-fw1_CxuEREfasKSE-8" value="notification_service" style="rounded=1;whiteSpace=wrap;html=1;" parent="1" vertex="1">
          <mxGeometry x="1060" y="920" width="120" height="60" as="geometry" />
        </mxCell>
        <mxCell id="lkF-fw1_CxuEREfasKSE-10" value="api_gateway" style="rounded=1;whiteSpace=wrap;html=1;" parent="1" vertex="1">
          <mxGeometry x="300" y="460" width="140" height="60" as="geometry" />
        </mxCell>
        <mxCell id="lkF-fw1_CxuEREfasKSE-12" value="" style="shape=actor;whiteSpace=wrap;html=1;" parent="1" vertex="1">
          <mxGeometry x="30" y="540" width="50" height="50" as="geometry" />
        </mxCell>
        <mxCell id="lkF-fw1_CxuEREfasKSE-13" value="" style="endArrow=classic;html=1;rounded=0;exitX=0.9;exitY=0.5;exitDx=0;exitDy=0;exitPerimeter=0;" parent="1" source="lkF-fw1_CxuEREfasKSE-12" edge="1">
          <mxGeometry width="50" height="50" relative="1" as="geometry">
            <mxPoint x="550" y="670" as="sourcePoint" />
            <mxPoint x="290" y="490" as="targetPoint" />
          </mxGeometry>
        </mxCell>
        <mxCell id="lkF-fw1_CxuEREfasKSE-14" value="authenticated user" style="text;html=1;align=center;verticalAlign=middle;whiteSpace=wrap;rounded=0;" parent="1" vertex="1">
          <mxGeometry x="120" y="495" width="60" height="30" as="geometry" />
        </mxCell>
        <mxCell id="lkF-fw1_CxuEREfasKSE-17" value="my sql db" style="shape=cylinder3;whiteSpace=wrap;html=1;boundedLbl=1;backgroundOutline=1;size=15;" parent="1" vertex="1">
          <mxGeometry x="830" y="320" width="60" height="80" as="geometry" />
        </mxCell>
        <mxCell id="rLLcDVbcR_JufIRMODQe-7" value="" style="edgeStyle=orthogonalEdgeStyle;rounded=0;orthogonalLoop=1;jettySize=auto;html=1;" parent="1" source="rLLcDVbcR_JufIRMODQe-1" target="rLLcDVbcR_JufIRMODQe-2" edge="1">
          <mxGeometry relative="1" as="geometry" />
        </mxCell>
        <mxCell id="rLLcDVbcR_JufIRMODQe-1" value="user_service" style="rounded=1;whiteSpace=wrap;html=1;" parent="1" vertex="1">
          <mxGeometry x="600" y="570" width="120" height="60" as="geometry" />
        </mxCell>
        <mxCell id="rLLcDVbcR_JufIRMODQe-2" value="mysql" style="shape=cylinder3;whiteSpace=wrap;html=1;boundedLbl=1;backgroundOutline=1;size=15;" parent="1" vertex="1">
          <mxGeometry x="830" y="560" width="60" height="80" as="geometry" />
        </mxCell>
      </root>
    </mxGraphModel>
  </diagram>
  <diagram name="ER-Diagram" id="OxqZ3Si_hgWhyGlnItvY">
    <mxGraphModel dx="2524" dy="772" grid="1" gridSize="10" guides="1" tooltips="1" connect="1" arrows="1" fold="1" page="1" pageScale="1" pageWidth="850" pageHeight="1100" math="0" shadow="0">
      <root>
        <mxCell id="0" />
        <mxCell id="1" parent="0" />
        <mxCell id="fHIIb7BNLTSF1y6XhI9Q-55" value="User" style="swimlane;childLayout=stackLayout;horizontal=1;startSize=50;horizontalStack=0;rounded=1;fontSize=14;fontStyle=0;strokeWidth=2;resizeParent=0;resizeLast=1;shadow=0;dashed=0;align=center;arcSize=4;whiteSpace=wrap;html=1;" parent="1" vertex="1">
          <mxGeometry x="-390" y="270" width="160" height="200" as="geometry" />
        </mxCell>
        <mxCell id="fHIIb7BNLTSF1y6XhI9Q-56" value="+ user_id&lt;div&gt;+ name&lt;/div&gt;&lt;div&gt;+ email&lt;/div&gt;&lt;div&gt;+ password&lt;/div&gt;&lt;div&gt;+ address&lt;/div&gt;&lt;div&gt;+ profile_img&lt;/div&gt;&lt;div&gt;+ user_type&lt;/div&gt;" style="align=left;strokeColor=none;fillColor=none;spacingLeft=4;fontSize=12;verticalAlign=top;resizable=0;rotatable=0;part=1;html=1;" parent="fHIIb7BNLTSF1y6XhI9Q-55" vertex="1">
          <mxGeometry y="50" width="160" height="150" as="geometry" />
        </mxCell>
        <mxCell id="fHIIb7BNLTSF1y6XhI9Q-57" value="vehicle" style="swimlane;childLayout=stackLayout;horizontal=1;startSize=50;horizontalStack=0;rounded=1;fontSize=14;fontStyle=0;strokeWidth=2;resizeParent=0;resizeLast=1;shadow=0;dashed=0;align=center;arcSize=4;whiteSpace=wrap;html=1;" parent="1" vertex="1">
          <mxGeometry x="60" y="100" width="160" height="300" as="geometry" />
        </mxCell>
        <mxCell id="fHIIb7BNLTSF1y6XhI9Q-58" value="+ vehicle_id&lt;div&gt;+ name&lt;/div&gt;&lt;div&gt;+ mileage&lt;/div&gt;&lt;div&gt;+ weight_load&lt;/div&gt;&lt;div&gt;+ color&lt;/div&gt;&lt;div&gt;+ engine_cc&lt;/div&gt;&lt;div&gt;+ location&lt;/div&gt;&lt;div&gt;+ is_rented&lt;/div&gt;&lt;div&gt;+ rent_price_per_day&lt;/div&gt;&lt;div&gt;+ rent_price_per_month&lt;/div&gt;&lt;div&gt;+ is_inspected&lt;/div&gt;&lt;div&gt;+ created_date&lt;/div&gt;&lt;div&gt;+ created_by_id&lt;/div&gt;&lt;div&gt;+ last_updated_by_id&lt;/div&gt;&lt;div&gt;+ last_updated_dt&lt;/div&gt;" style="align=left;strokeColor=none;fillColor=none;spacingLeft=4;fontSize=12;verticalAlign=top;resizable=0;rotatable=0;part=1;html=1;" parent="fHIIb7BNLTSF1y6XhI9Q-57" vertex="1">
          <mxGeometry y="50" width="160" height="250" as="geometry" />
        </mxCell>
        <mxCell id="fHIIb7BNLTSF1y6XhI9Q-63" style="edgeStyle=orthogonalEdgeStyle;rounded=0;orthogonalLoop=1;jettySize=auto;html=1;exitX=0.5;exitY=1;exitDx=0;exitDy=0;" parent="fHIIb7BNLTSF1y6XhI9Q-57" source="fHIIb7BNLTSF1y6XhI9Q-58" target="fHIIb7BNLTSF1y6XhI9Q-58" edge="1">
          <mxGeometry relative="1" as="geometry" />
        </mxCell>
        <mxCell id="fHIIb7BNLTSF1y6XhI9Q-59" value="vehicle_rent_master" style="swimlane;childLayout=stackLayout;horizontal=1;startSize=50;horizontalStack=0;rounded=1;fontSize=14;fontStyle=0;strokeWidth=2;resizeParent=0;resizeLast=1;shadow=0;dashed=0;align=center;arcSize=4;whiteSpace=wrap;html=1;" parent="1" vertex="1">
          <mxGeometry x="60" y="460" width="160" height="260" as="geometry" />
        </mxCell>
        <mxCell id="fHIIb7BNLTSF1y6XhI9Q-60" value="+ rent_id&lt;div&gt;+ vehicle_id&lt;div&gt;+ rental_user_id&lt;/div&gt;&lt;div&gt;+ rental_period_start_dt&lt;/div&gt;&lt;div&gt;+ rental_period_last_dt&lt;/div&gt;&lt;div&gt;+ overdue_days&lt;/div&gt;&lt;div&gt;+ rental_return_dt&lt;/div&gt;&lt;div&gt;+ created_by&lt;/div&gt;&lt;div&gt;+ created_dt&lt;/div&gt;&lt;div&gt;+ last_updated_by&lt;/div&gt;&lt;div&gt;+ last_updated_Dt&lt;/div&gt;&lt;div&gt;&lt;br&gt;&lt;/div&gt;&lt;/div&gt;" style="align=left;strokeColor=none;fillColor=none;spacingLeft=4;fontSize=12;verticalAlign=top;resizable=0;rotatable=0;part=1;html=1;" parent="fHIIb7BNLTSF1y6XhI9Q-59" vertex="1">
          <mxGeometry y="50" width="160" height="210" as="geometry" />
        </mxCell>
      </root>
    </mxGraphModel>
  </diagram>
</mxfile>
